<svg width="400" height="300" xmlns="http://www.w3.org/2000/svg">
  <defs>
    <linearGradient id="skyGrad" x1="0%" y1="0%" x2="0%" y2="100%">
      <stop offset="0%" style="stop-color:#34495e;stop-opacity:1" />
      <stop offset="100%" style="stop-color:#2c3e50;stop-opacity:1" />
    </linearGradient>
    <linearGradient id="groundGrad" x1="0%" y1="0%" x2="0%" y2="100%">
      <stop offset="0%" style="stop-color:#2c3e50;stop-opacity:1" />
      <stop offset="100%" style="stop-color:#1a1a1a;stop-opacity:1" />
    </linearGradient>
  </defs>

  <!-- Sky background -->
  <rect width="100%" height="70%" fill="url(#skyGrad)"/>

  <!-- Ground -->
  <rect x="0" y="70%" width="100%" height="30%" fill="url(#groundGrad)"/>

  <!-- Industrial scene -->
  
                <!-- Distillation columns -->
                <rect x="80" y="50" width="20" height="200" fill="#95a5a6"/>
                <rect x="150" y="80" width="25" height="170" fill="#7f8c8d"/>
                <rect x="220" y="60" width="22" height="190" fill="#95a5a6"/>
                <rect x="290" y="90" width="20" height="160" fill="#7f8c8d"/>

                <!-- Platforms -->
                <rect x="70" y="120" width="40" height="3" fill="#34495e"/>
                <rect x="140" y="140" width="45" height="3" fill="#34495e"/>
                <rect x="210" y="130" width="44" height="3" fill="#34495e"/>

                <!-- Pipes -->
                <rect x="100" y="100" width="50" height="4" fill="#bdc3c7"/>
                <rect x="175" y="110" width="45" height="4" fill="#bdc3c7"/>
                <rect x="242" y="105" width="48" height="4" fill="#bdc3c7"/>

                <!-- Storage tanks -->
                <circle cx="350" cy="200" r="30" fill="#ecf0f1"/>
                <circle cx="350" cy="200" r="25" fill="#bdc3c7"/>

  <!-- Atmospheric effects -->
  <rect x="0" y="0" width="100%" height="100%" fill="rgba(0,0,0,0.1)"/>

  <!-- Subtle lighting -->
  <ellipse cx="100" cy="50" rx="80" ry="20" fill="rgba(255,255,255,0.05)"/>
</svg>